<?xml version="1.0" standalone="no"?><!DOCTYPE svg PUBLIC "-//W3C//DTD SVG 1.1//EN" "http://www.w3.org/Graphics/SVG/1.1/DTD/svg11.dtd"><svg t="1498201956935" class="icon" style="" viewBox="0 0 1024 1024" version="1.1" xmlns="http://www.w3.org/2000/svg" p-id="10946" xmlns:xlink="http://www.w3.org/1999/xlink" width="32" height="32"><defs><style type="text/css"></style></defs><path d="M1006.841713 513.985214c0-5.933129-1.02126-10.915607-1.316995-11.473309-0.195451-2.968611-1.187035-8.314363-2.14485-11.150968-0.261966-0.689708-0.557702-1.413186-0.855484-2.13871-0.491187-1.620917-1.055029-3.199878-1.648546-4.454452-91.252307-199.548802-287.630906-333.63773-488.702388-333.63773-201.027479 0-397.412219 133.988644-488.233714 332.448648-1.087774 2.174526-1.849114 4.224208-2.341325 6.033413-0.233314 0.562818-0.461511 1.122567-0.661056 1.650593-1.810229 5.241374-1.846044 8.900717-1.679245 7.979742-0.859577 3.858888-1.6158 11.508102-1.6158 11.508102-0.231267 2.339278-0.231267 4.157693 0.029676 6.497994 0 0 0.760317 6.66377 1.121544 8.045233 0.132006 1.88186 0.594541 4.649903 1.153266 7.189749l-0.030699 0c0.463558 2.14485 1.153266 4.223185 2.043542 6.265704 0.494257 1.585101 1.02126 3.062755 1.520633 4.157693 91.346451 199.614294 287.729144 333.73392 488.693178 333.73392 201.101157 0 397.487943-134.024459 487.681128-331.525626 1.417279-2.572592 2.308579-4.982478 2.931772-7.125281 0.268106-0.62524 0.496304-1.216711 0.695848-1.781576 1.585101-4.615111 1.910513-8.574283 1.780553-8.574283l-0.035816 0.034792C1005.856269 524.472056 1006.841713 519.690146 1006.841713 513.985214L1006.841713 513.985214zM940.198897 516.425799c-0.035816 0.165776-0.101307 0.331551-0.1361 0.49835-0.132006 0.426719-0.295735 0.883113-0.427742 1.412163C858.478687 693.285856 687.058526 810.68773 512.17345 810.68773c-174.450171 0-345.570503-117.039623-427.552679-292.645107-0.166799-0.591471-0.332575-1.187035-0.530073-1.744737-0.064468-0.559748-0.164752-1.057075-0.195451-1.385557-0.064468-0.36225-0.12996-0.825808-0.200568-1.287319l0.035816-0.428765c0.164752-0.724501 0.296759-1.484817 0.397043-2.27481 0.130983-0.428765 0.260943-0.860601 0.393973-1.318018 81.226976-175.047782 252.77812-292.517193 427.653987-292.517193 174.949544 0 346.471013 117.568672 427.431929 292.353464 0.096191 0.323365 0.161682 0.621147 0.261966 0.853437 0.064468 0.295735 0.163729 0.594541 0.261966 0.889253 0.165776 1.319042 0.331551 2.606361 0.497327 3.26537C940.425048 515.106758 940.330904 515.76679 940.198897 516.425799L940.198897 516.425799zM512.17345 349.000626c-90.917686 0-164.888398 73.966619-164.888398 164.888398 0 90.919732 73.970712 164.891468 164.888398 164.891468 90.924849 0 164.890444-73.971735 164.890444-164.891468C677.061848 422.967244 603.097276 349.000626 512.17345 349.000626L512.17345 349.000626zM512.17345 612.818173c-54.540174 0-98.928127-44.387953-98.928127-98.930173 0-54.547337 44.387953-98.93529 98.928127-98.93529 54.550407 0 98.936313 44.387953 98.936313 98.93529C611.107717 568.43022 566.721811 612.818173 512.17345 612.818173L512.17345 612.818173z" p-id="10947" fill="#000000"></path></svg>